<svg xmlns="http://www.w3.org/2000/svg" width="516.337" height="496"><defs><linearGradient id="a" x1=".5" y1=".272" x2=".5" y2="1" gradientUnits="objectBoundingBox"><stop offset="0" stop-color="#fff"/><stop offset="1" stop-color="#f3f9ff"/></linearGradient></defs><g data-name="Group 110732" transform="translate(-877.663 -101)"><circle data-name="Ellipse 745" cx="248" cy="248" r="248" transform="translate(898 101)" fill="url(#a)"/><g data-name="Group 109508"><g data-name="Group 109505" transform="translate(1018.401 187.5)"><g data-name="Group 512" opacity=".4"><path data-name="Rectangle 2218" fill="#cbac8b" d="M223.306 55.74h-65.432V0h65.432z"/><path data-name="Rectangle 2219" fill="#dabea0" d="M256.022 55.74H190.59V0h65.432z"/><path data-name="Path 1432" d="M157.914 41.607h10.366l-.912-3.018.912-2.15h-10.366z" fill="#dabea0"/><path data-name="Path 1433" d="M190.59 17.251h10.37l-.916-3.013.916-2.154h-10.37z" fill="#cbac8b"/><path data-name="Path 1434" d="M190.59 12.083h-10.366l.912 3.014-.912 2.154h10.366z" fill="#dabea0"/><path data-name="Path 1435" d="M256.022 42.205h-10.366l.912 3.013-.912 2.154h10.366z" fill="#cbac8b"/><path data-name="Rectangle 2220" fill="#fff" d="M232.908 3.781h18.831v7.567h-18.831z"/><path data-name="Rectangle 2221" fill="#cbac8b" d="M107.754 55.74H42.322V0h65.432z"/><path data-name="Rectangle 2222" fill="#dabea0" d="M140.474 55.74H75.042V0h65.432z"/><path data-name="Path 1436" d="M42.362 41.607h10.37l-.916-3.018.916-2.15h-10.37z" fill="#dabea0"/><path data-name="Path 1437" d="M75.038 17.251h10.37l-.912-3.013.912-2.154h-10.37z" fill="#cbac8b"/><path data-name="Path 1438" d="M75.038 12.083H64.672l.912 3.014-.912 2.154h10.366z" fill="#dabea0"/><path data-name="Path 1439" d="M140.474 42.205h-10.37l.912 3.013-.912 2.154h10.37z" fill="#cbac8b"/><path data-name="Rectangle 2223" fill="#fff" d="M117.356 3.781h18.827v7.567h-18.827z"/><path data-name="Rectangle 2224" fill="#cca67e" d="M0 55.74h25.167v310.113H0z"/><path data-name="Rectangle 2225" fill="#cca67e" d="M275.917 55.74h20.92v310.113h-20.92z"/><path data-name="Rectangle 2226" fill="#dcc2a6" d="M25.167 55.74h271.67v8.069H25.167z"/><path data-name="Rectangle 2227" fill="#dcc2a6" d="M25.167 202.725h271.67v8.069H25.167z"/><path data-name="Rectangle 2228" fill="#dcc2a6" d="M25.167 326.006h271.67v8.069H25.167z"/><path data-name="Rectangle 2229" fill="#c2a280" d="M230.051 202.725h-67.645v-57.629h67.645z"/><path data-name="Rectangle 2230" fill="#dabea0" d="M263.876 202.725h-67.645v-57.629h67.645z"/><path data-name="Path 1440" d="M196.231 162.932h10.719l-.944-3.117.944-2.225h-10.719z" fill="#c2a280"/><path data-name="Path 1441" d="M196.231 157.59h-10.719l.944 3.117-.944 2.225h10.719z" fill="#dabea0"/><path data-name="Path 1442" d="M263.88 188.729h-10.723l.948 3.117-.948 2.229h10.723z" fill="#c2a280"/><path data-name="Rectangle 2231" fill="#fff" d="M239.979 149.007h19.466v7.824h-19.466z"/><path data-name="Rectangle 2232" fill="#cbac8b" d="M143.242 202.725H75.597v-57.629h67.645z"/><path data-name="Rectangle 2233" fill="#dabea0" d="M177.062 202.725h-67.645v-57.629h67.645z"/><path data-name="Path 1443" d="M75.633 188.111h10.719l-.944-3.113.944-2.229H75.633z" fill="#dabea0"/><path data-name="Path 1444" d="M109.417 162.932h10.719l-.944-3.117.944-2.225h-10.719z" fill="#cbac8b"/><path data-name="Path 1445" d="M109.417 157.59H98.698l.944 3.117-.944 2.225h10.719z" fill="#dabea0"/><path data-name="Path 1446" d="M177.066 188.729h-10.719l.944 3.117-.944 2.229h10.719z" fill="#cbac8b"/><path data-name="Path 1447" d="M177.066 156.831h-10.719l.944 3.117-.944 2.225h10.719z" fill="#cbac8b"/><path data-name="Rectangle 2234" fill="#fff" d="M116.247 183.802h31.727v12.751h-31.727z"/><path data-name="Rectangle 2235" fill="#cbac8b" d="M220.875 325.819h-58.469V276.01h58.469z"/><path data-name="Rectangle 2236" fill="#dabea0" d="M250.108 325.819h-58.469V276.01h58.469z"/><path data-name="Path 1448" d="M191.638 291.427h9.265l-.816-2.694.816-1.926h-9.265z" fill="#cbac8b"/><path data-name="Path 1449" d="M191.639 286.807h-9.265l.82 2.694-.82 1.926h9.265z" fill="#b2916d"/><path data-name="Path 1450" d="M250.108 313.724h-9.261l.816 2.694-.816 1.921h9.261z" fill="#dabea0"/><path data-name="Rectangle 2237" fill="#fff" d="M229.457 279.389h16.826v6.762h-16.826z"/><path data-name="Rectangle 2238" fill="#cbac8b" d="M119.007 325.819H51.362V268.19h67.645z"/><path data-name="Rectangle 2239" fill="#dabea0" d="M152.832 325.819H85.187V268.19h67.645z"/><path data-name="Path 1451" d="M51.402 311.205h10.719l-.944-3.117.944-2.225H51.402z" fill="#b2916d"/><path data-name="Path 1452" d="M85.187 286.026h10.719l-.944-3.117.944-2.224H85.187z" fill="#cbac8b"/><path data-name="Path 1453" d="M85.186 280.684H74.467l.944 3.117-.944 2.225h10.719z" fill="#b2916d"/><path data-name="Rectangle 2240" fill="#cbac8b" d="M122.117 145.097H70.402v-44.056h51.715z"/><path data-name="Rectangle 2241" fill="#dabea0" d="M147.975 145.097H96.26v-44.056h51.715z"/><path data-name="Path 1454" d="M70.434 133.662h8.19l-.719-2.383.719-1.7h-8.19z" fill="#dabea0"/><path data-name="Path 1455" d="M96.259 114.676h8.2l-.723-2.382.723-1.7h-8.2z" fill="#cbac8b"/><path data-name="Path 1456" d="M96.259 110.592h-8.192l.719 2.383-.719 1.7h8.192z" fill="#dabea0"/><path data-name="Path 1457" d="M147.979 134.396h-8.2l.723 2.382-.723 1.7h8.2z" fill="#cbac8b"/><path data-name="Rectangle 2242" fill="#fff" d="M129.706 104.03h14.881v5.981h-14.881z"/><path data-name="Rectangle 2243" fill="#cbac8b" d="M214.519 145.097h-51.715v-44.056h51.715z"/><path data-name="Rectangle 2244" fill="#dabea0" d="M240.373 145.097h-51.715v-44.056h51.715z"/><path data-name="Path 1458" d="M162.832 133.923h8.2l-.723-2.383.723-1.7h-8.2z" fill="#dabea0"/><path data-name="Path 1459" d="M188.661 114.676h8.192l-.719-2.382.719-1.7h-8.192z" fill="#cbac8b"/><path data-name="Path 1460" d="M188.662 110.592h-8.2l.723 2.383-.723 1.7h8.2z" fill="#dabea0"/><path data-name="Path 1461" d="M240.381 134.396h-8.2l.723 2.382-.723 1.7h8.2z" fill="#cbac8b"/><path data-name="Rectangle 2245" fill="#fff" d="M222.109 104.03h14.881v5.981h-14.881z"/><path data-name="Rectangle 2246" fill="#cbac8b" d="M88.087 234.769h39.196v33.393H88.087z"/><path data-name="Rectangle 2247" fill="#dabea0" d="M68.489 234.769h39.196v33.393H68.489z"/><path data-name="Path 1462" d="M127.263 259.697h-6.211l.546-1.806-.546-1.291h6.211z" fill="#b2916d"/><path data-name="Path 1463" d="M107.685 245.104h-6.211l.546-1.806-.546-1.291h6.211z" fill="#cbac8b"/><path data-name="Path 1464" d="M107.686 242.008h6.211l-.547 1.805.547 1.291h-6.211z" fill="#b2916d"/><path data-name="Path 1465" d="M68.489 260.051H74.7l-.55 1.806.55 1.291h-6.211z" fill="#cbac8b"/><path data-name="Rectangle 2248" fill="#fff" d="M82.334 241.568H71.052v-4.533h11.282z"/></g><path data-name="Path 1318" d="M237.486 349.006a19.111 19.111 0 00-1.016-4.826 17.877 17.877 0 00-.893-2.102 16.39 16.39 0 00-.374-.7 15.178 15.178 0 00-2.221-3.016c-.3-.307-.605-.6-.922-.875-.249-.213-.5-.4-.765-.6a11.482 11.482 0 00-1.154-.75c-.148-.082-.3-.163-.446-.241a10.368 10.368 0 00-4.042-1.128 9.91 9.91 0 00-.646-.02h-5.84c-6.933 0-12.554 7.113-12.554 15.886s5.621 15.886 12.554 15.886h5.84c.216 0 .432 0 .646-.02a10.331 10.331 0 004.042-1.13c.15-.076.3-.157.446-.241a11.483 11.483 0 001.154-.748c.261-.2.516-.39.765-.6.317-.276.626-.567.922-.877a15.178 15.178 0 002.221-3.016q.195-.344.374-.7a16.871 16.871 0 00.574-1.259c.113-.276.22-.557.319-.843a19.132 19.132 0 001.016-4.826q.064-.8.064-1.625t-.064-1.629z" fill="#343434"/><path data-name="Path 1319" d="M114.261 201.321h-2.943a1.158 1.158 0 00-.5-1.48 1.131 1.131 0 00-1.392.766 1.462 1.462 0 00-.1.714h-2.879a.346.346 0 00-.265.125l-.95 1.136a.371.371 0 00-.058.39.35.35 0 00.321.213h7.811a.35.35 0 00.264-.125l.95-1.138a.369.369 0 00.059-.391.348.348 0 00-.318-.21zm-3.593-.2a.331.331 0 01-.447.116.354.354 0 01-.14-.454.332.332 0 01.429-.173.379.379 0 01.185.226.394.394 0 01-.027.295z" fill="#ffa412"/><path data-name="Path 1320" d="M58.422 118.906l-9.478 7.673c-.444.718.508.756.092 1.641-3.85 8.166-1.267 16.892 1.993 16.017 2.091-.565 2.682 3.121 2.682 3.121l20.315-16.99s-7.462-15.951-15.604-11.462z" fill="#343434"/><path data-name="Path 1321" d="M65.496 359.515l-4.315 1.661s-18.742-26.855-21.049-50.474a37.029 37.029 0 01.617-12.08s-.183-1.08-.5-2.992c-.148-.891-.331-1.965-.539-3.2-.609-3.606-1.448-8.542-2.406-14.161-2.205-12.932-5.061-29.462-7.282-41.625l1.168-.386 12.58-4.191 2.6-8.532 9.366-2.548s2.094 4.223 3.965 24.207c.345 2.614.658 5.51.893 8.647a176.6 176.6 0 01-.891 34.99q-.645 5.206-1.645 10.74a49.508 49.508 0 00-.358 10.605c.935 19.325 7.796 49.339 7.796 49.339z" fill="#6877dd"/><path data-name="Path 1322" d="M60.585 253.843l-20.34 41.779c-.148-.891-.331-1.965-.539-3.2-.609-3.606-1.448-8.542-2.406-14.161-2.205-12.932-5.061-29.462-7.282-41.625l1.168-.386 12.58-4.191 2.6-8.532 9.366-2.548s2.094 4.223 3.965 24.207c.339 2.634.652 5.524.888 8.657z" fill="#5666cf"/><path data-name="Path 1323" d="M51.637 226.354l-.471-4.171c-7.889 2.164-28.967-6.049-28.967-6.049s-7.644 6.94-6.639 23.576c.489 8.122 1.384 42.631 2.318 52.838.339 3.7.635 6.332.755 7.386a1.5 1.5 0 01-.23.9 48.67 48.67 0 00-3.449 7.495c-9.172 25.247 1.413 56.341 1.413 56.341l2.746-1.144s6.022-34.6 10.916-49.89a31.019 31.019 0 012.357-5.848c2.128-3.547 4.1-9.345 5.894-16.24 3.389-13.035 6.116-29.992 7.93-43.081.246.028 5.427-22.113 5.427-22.113z" fill="#6877dd"/><path data-name="Path 1324" d="M113.789 221.025c-1.7 1.552-6.205-3.778-6.826-4.486a.36.36 0 00-.064-.1l1.362-3.947s5.909-.237 6.888.774.5 6.101-1.36 7.759z" fill="#ed985f"/><path data-name="Path 1325" d="M108.27 212.492l-.584 4.082s-.263 0-.72-.034c-1.436-.1-4.93-.3-8.882-.742-5.942-.6-13-1.687-15.805-3.475-4.282-2.7-11.289-10.965-15.869-19.23a5.442 5.442 0 01-.327-.6c-2.384-4.386-4.048-8.737-4.179-12.212a17.968 17.968 0 01.555-5.534 14.283 14.283 0 012.415-4.991 2.526 2.526 0 01.461-.579 11.2 11.2 0 013.1-2.733c.779-.336 1.633.069 2.515 1.046v.034a15.5 15.5 0 012.252 3.443c.033.032.066.066.066.1.164.3.327.642.522 1.006a.8.8 0 01.13.237q.539 1.162 1.078 2.427c4.017 9.049 8.294 22.739 11.854 26.821 1.534 1.754 8.564 5.2 14.139 7.76 4.013 1.824 7.279 3.174 7.279 3.174z" fill="#ed985f"/><path data-name="Path 1326" d="M66.708 175.754a23.911 23.911 0 01-9.086 2.2c-13.563.768-16.642-11.514-17.2-19.667a11.041 11.041 0 014.654-.6c.961.056 1.966.157 2.793.263 1.66-.9 4.64-5.244 6.363-12.52l.584.279 9.785 4.754s-1.038 3.29-1.806 6.435c-.6 2.465-1.028 4.844-.669 5.512.779.324 1.234.527 1.234.527a.046.046 0 000 .01 71.214 71.214 0 013.348 12.807z" fill="#ffb27d"/><path data-name="Path 1327" d="M70.101 184.948c-.1.279-.216.553-.339.832-3.435 7.641-9.794 39.3-9.794 39.3.907 5.691-41.406-1.118-41.515-6.3-1.491-5.5 5.287-14.326 9.109-18.755a12.771 12.771 0 003.015-7.012c.751-7.346.465-14.231.529-18.418.747-.571 1.47-1.1 2.141-1.609a18.933 18.933 0 002.608-2.234 4.138 4.138 0 001.25-2.544 14.006 14.006 0 00-.053-2.134 19.54 19.54 0 00-.123-1.016 29.718 29.718 0 00-1.958-6.773c3.638-1.52 10.11-.615 10.11-.615v.979c-.021 2.443 0 8.713.757 9.9.948 1.478 18.283 7.953 19.2 5.946.9-1.971-1.557-11.213-1.66-11.563a.057.057 0 010-.01c5.8 2.355 7.879 4.332 7.879 4.332-3.517 2.349 1.549 10.28-1.156 17.694z" fill="#2a4e96"/><path data-name="Path 1328" d="M64.603 150.455s-1.041 3.286-1.808 6.435c-5.72-1.649-7.457-7.861-7.98-11.191z" fill="#ed985f"/><path data-name="Path 1329" d="M65.807 153.933s-13.683-3.271-11.583-12.049 1.752-15.106 10.581-13.386 9.717 5.5 9.7 8.6-5.081 17.455-8.698 16.835z" fill="#ffb27d"/><path data-name="Path 1330" d="M75.278 132.124c-1.471-3.179-3.2-3.016-4.282-2.445-6.423-6.147-16.177-3.059-16.177-3.059-2.427 6.059-4.249 10.469-4.249 10.469s2.1 2.224 8.2 2.174a9.83 9.83 0 005.434-2.113 32.884 32.884 0 01-7.136 5.5c7.628-1.508 12.743-10.632 13.267-11.6a11.593 11.593 0 011.987 4.856c.14 2.413-.662 7.086.673 7.263-.008-.003 4.488-6.275 2.283-11.045z" fill="#343434"/><path data-name="Path 1331" d="M71.239 167.258s3.3 5.938 3.788 7.466c0 0-4.272-.169-6 3.217.007.009-.411-9.883 2.212-10.683z" fill="#2a4e96"/><path data-name="Path 1332" d="M48.575 214.446c-8.344-.09-15.412-9.049-19.731-16.2a12.675 12.675 0 001.732-5.228c.751-7.346.465-14.231.529-18.418.747-.571 1.47-1.1 2.141-1.609a18.913 18.913 0 002.608-2.234c6.835 11.949 24.032 43.813 12.721 43.689z" fill="#1f437c"/><path data-name="Path 1333" d="M32.336 366.995H10.604a12.718 12.718 0 01.613-6.018c1.088-2.49 2.791-3.62 2.384-6.636a7.7 7.7 0 006.773 2.676c.389.646 2.484 4.1 3.77 5.049 1.422 1.06 7.756.684 8.192 4.929z" fill="#233862"/><path data-name="Path 1334" d="M79 367.001H57.266s-.812-3.582.615-6.019c1.263-2.156.779-3.384-.156-5.168a8.216 8.216 0 003.659.714 7.49 7.49 0 003.233-1.177 79.485 79.485 0 006.192 6.721c1.421 1.055 7.762.679 8.191 4.929z" fill="#233862"/><path data-name="Path 1335" d="M99.206 202.149l-21.146 28.42.313.4 21.446-28.472z" fill="#233862"/><path data-name="Path 1336" d="M99.78 202.547h21.459l-22.466 28.418h-20.4z" fill="#2b478b"/><path data-name="Path 1337" d="M95.368 219.793c-.06-1.132-1.5-1.08-2.6-1.084a20.211 20.211 0 01-6.277-.786s5.242-.078 4.128-1.788c-.195-.312-2.809-.076-5.717-.076a9.962 9.962 0 00-3.988 1.768 58.06 58.06 0 01-4.644-.849c-1.436-.8-3.167-1.788-4.995-2.867a145.477 145.477 0 01-12.932-8.3 16.1 16.1 0 01-4.017-3.744 47.5 47.5 0 01-2.743-6.58c-.522-1.484-1.076-3.1-1.633-4.826-.973-2.833-1.958-5.9-2.97-8.973-1.83-5.6-3.788-11.235-5.645-15.586a30.81 30.81 0 00-3.494-6.377c-.882-1.114-1.73-1.687-2.546-1.552-.132.034-.23.068-.327.1 0 0-4.7 1.351-4.769 11.134a15.671 15.671 0 00.033 1.719 37.057 37.057 0 00.882 6.107 93.772 93.772 0 003.723 12.819c.457 1.206.913 2.463 1.4 3.712 3.527 9.049 8.066 17.474 11.887 20.342a4.185 4.185 0 00.457.338 33.815 33.815 0 006.661 3.068c3.854 1.351 8.424 2.564 12.508 3.577h.031c2.384.539 4.572 1.046 6.4 1.408 0 0 .3.079.833.187l.243.05a71.238 71.238 0 018.654 2.733 8.477 8.477 0 009.732-2.16 5.656 5.656 0 001.725-3.514z" fill="#ffb27d"/><path data-name="Path 1338" d="M41.315 166.117c-6.285-1.792-11.136 3.28-11.136 3.28.08-9.767 4.792-11.1 4.792-11.1 1.886-.815 5.89 1.371 6.344 7.82z" fill="#2a4e96"/><path data-name="Path 1339" d="M67.006 113.994a16.61 16.61 0 00-7.98-.117c-.22.056-.438.117-.652.183-8.5 2.626-10.643 12.8-10.643 12.8a27.521 27.521 0 00-.265 3.821c.09 1.152 8.189 4.138 9.417 2.652a10.7 10.7 0 013.6-2.451s8.29 3.646 8.849 3.889c1.876.816 7.957 1.679 7.957 1.679.199-.547 5.499-18.724-10.283-22.456z" fill="#343434"/><path data-name="Path 1340" d="M82.901 137.195a30.467 30.467 0 00-5-3.4 23.542 23.542 0 01-8.459-.147c-.759-3.871-3.517-13.692-10.415-19.769l-.06-.054c-.272.129-.4.153-.584.237a1.843 1.843 0 00-.195.1c5.839 4.517 8.249 15.136 8.965 19.013a39.107 39.107 0 01-6.665-2.282s6.164 6.793 21.973 7.525a.7.7 0 00.44-1.223z" fill="#606060"/><path data-name="Path 1341" d="M99.206 202.149h21.582l.452.4H99.78z" fill="#233862"/><path data-name="Path 1342" d="M261.879 336.15h-38.861a1.514 1.514 0 010-3.017h38.861a1.514 1.514 0 010 3.017z" fill="#474747"/><path data-name="Path 1343" d="M262.266 289.697h-39.633a1.509 1.509 0 010-3.016h39.633a1.509 1.509 0 010 3.016z" fill="#474747"/><path data-name="Path 1344" d="M286.814 220.493c2.352.561 12.975.694 20.438-1.038a22.259 22.259 0 004.152-1.337 6.405 6.405 0 003.005-2.345c.843-1.452 2.386-6.421 4.2-12.936 5-17.947 12.027-47.6 12.027-47.6s-14.118 2.976-17.105 5.518-5.627 42.852-8.436 43.942c-.415.161-1.129.5-2.044.965l-.134.066c-.547.278-1.168.6-1.826.953-5.828 3.095-15.474 8.671-16.475 9.91-1.321 1.633-1.23 3.085 2.198 3.902z" fill="#2a4e96"/><path data-name="Path 1345" d="M313.897 178.185a11.953 11.953 0 01.195-2.063c1.816-10.32 16.263-20.887 16.545-20.887v.215c0 1.577 2.407 4.488 6.114 4.738 4.4.3 9.826-2.294 9.826-4.911.027 0 2.472.342 3.309.436 3.525.414 10.559 2.381 13.573 4.734 2.865 2.236-1.183 16.339-3.7 26.323-1.063 4.223-1.845 7.712-1.717 9.25.063.754.72 11 1.3 20.274.487 7.641.923 14.629.937 15.07.031.869-4.149 3.911-11.171 6.21a53.319 53.319 0 01-5.569 1.492 57.314 57.314 0 01-12.113 1.243 40.366 40.366 0 01-4.12-.215c-10.027-1.013-13.462-12.819-13.409-61.909z" fill="#2a4e96"/><path data-name="Path 1346" d="M346.573 155.159a90.68 90.68 0 00-.5-12.838l-15.486 2.614s-.018 4.887.051 10.3c-.01 0-.42 5.027 5.57 5.759s10.527-1.96 10.365-5.835z" fill="#ffb27d"/><path data-name="Path 1466" d="M346.495 145.447a90.433 90.433 0 00-.424-12.822l-15.486 2.614s-.048 4.844.021 10.261c-.01 0-.39 5.07 5.6 5.8s10.45-1.976 10.289-5.853z" fill="#ed985f"/><path data-name="Path 1347" d="M333.618 367c1.947-1.236.8-10.412.8-10.412s-9.121-7.481-10.349-1.721-8.609 8.369-12.811 9.091c-2.9.5-3.973 2.047-4.247 3.032z" fill="#233862"/><path data-name="Path 1348" d="M347.804 209.239c0 15.343 7.2 11.209 11.542 7.064-.584-9.27-1-42.11-1-42.11s-10.542 13.069-10.542 35.046z" fill="#1f437c"/><path data-name="Path 1349" d="M301.092 206.679c.288 2.152 3.58 8.418 6.161 12.775a22.242 22.242 0 004.152-1.337 6.406 6.406 0 003.005-2.345c.843-1.452 2.386-6.421 4.2-12.936-1.343-8.018-2.618-15.936-2.618-15.936l-.389-5.311c0 .4-6.02 23.743-8.745 24.288a9.367 9.367 0 01-3.8-.217l-.135.066c-.551.277-1.165.599-1.831.953z" fill="#1f437c"/><path data-name="Path 1350" d="M361.567 367c1.947-1.236.8-10.412.8-10.412s-9.121-7.481-10.351-1.721-8.608 8.369-12.812 9.091c-2.9.5-3.955 2.047-4.229 3.032z" fill="#233862"/><path data-name="Path 1351" d="M348.049 137.704s10.338-16.839-9.512-17.953c0 0-7.445.9-9.13-.836 0 0-5.776 9.067-.39 18.79s19.032-.001 19.032-.001z" fill="#343434"/><path data-name="Path 1352" d="M331.046 146.491c1.5 1.223 5.915 2.437 7.192 2.58 0 0 6.542-1.508 7.731-2.248 1.841-1.154 1.723-3.489 1.818-6.734.113-3.843.488-6.859.072-9.075-.493-2.648-2.12-4.156-6.673-4.567-8.356-.748-11.838 1.408-11.984 4.307-.037.778-.072 1.518-.1 2.222-.33 9.027.366 12.229 1.944 13.515z" fill="#ffb27d"/><path data-name="Path 1354" d="M360.283 231.369c.031.869-4.15 3.911-11.17 6.212-.567.185-1.153.364-1.752.537a.02.02 0 00-.014.018c-.656 7.939-2.429 19.154-4.027 29.977a916.597 916.597 0 00-1.186 8.271 170.81 170.81 0 00-1.785 18.263v.05c-.033 2.14 1.715 7.48 1.845 8.715.082.754.148 1.552.2 2.389a99.1 99.1 0 01-.148 11.508c-1.146 18.4-5.853 41.945-7.532 42.947-3.338 1.995-9.411 0-12.5-.469a2.613 2.613 0 01-2.235-2.652c1.508-30.539-2.824-73.07-6.061-99.215l-.251-2.011a133.128 133.128 0 01-.8-8.558 131.723 131.723 0 01-.251-6.135c0-.559-.011-1.092-.016-1.6 0-1.637 1.254-12.351 1.31-61.441a2.04 2.04 0 012-2.063h29.057a4.959 4.959 0 013.584 1.551 5.3 5.3 0 011.449 3.724 86.538 86.538 0 00.872 13.964c1.073 6.817 3.369 13.183 8.109 14.716a.021.021 0 01.012 0c.021.05.152.348.36.845q.068 1.85.15 3.766c.01.255.021.515.033.772 0 .153.014.3.021.454.011.259.024.521.037.782.02.43.039.863.064 1.3l.054 1.032q.053 1.005.117 2.011c.01.219.024.434.039.654q.082 1.319.179 2.664l.06.828c0 .133.02.265.03.4.027.352.052.7.082 1.056s.06.75.091 1.128c.105 1.414-.062 2.641-.027 3.61z" fill="#42b2fc"/><path data-name="Path 1355" d="M342.241 317.31c-1.146 18.4-5.853 41.945-7.533 42.947-3.338 1.995-9.411 0-12.5-.468a2.614 2.614 0 01-2.234-2.652c1.508-30.54-2.825-73.07-6.061-99.216q-.129-1.02-.251-2.011a133.155 133.155 0 01-.8-8.559c1.54-10.366 10.229-10.921 18.1 10.523-.974 7.121 11.546 55.219 11.279 59.436z" fill="#2c9edd"/><path data-name="Path 1356" d="M360.61 293.783c.24 2.127 2.649 7.185 2.937 8.389 3.984 16.552 1.785 55.8-.195 57.369-3.055 2.429-9.333 1.275-12.457 1.23a2.587 2.587 0 01-2.554-2.325c-2.449-31.271-12.6-74.22-19.128-99.487a122.343 122.343 0 01-3.752-22.084s30.509-19.3 33.807-8.761c2.93 9.336-.5 49.335 1.342 65.669z" fill="#42b2fc"/><path data-name="Path 1357" d="M329.534 115.041q.315-.368.67-.712a11.844 11.844 0 013.634-2.441c5.32-2.292 9.732-.177 12.489 1.991.272.2.527.426.765.637a16.3 16.3 0 012.336 2.489s2.583 3.642 2.5 11.317l-26.612.29s-.393-8.287 4.218-13.571z" fill="#343434"/><path data-name="Path 1358" d="M344.453 128.41l-1.461.018c-.029-.438.043-10.416 3.644-14.289a5.177 5.177 0 01.454.386c-3.415 3.402-2.637 13.774-2.637 13.885z" fill="#606060"/><path data-name="Path 1359" d="M332.892 128.532a43.486 43.486 0 00-3.178-13.674 6.214 6.214 0 01.49-.535c.424.754 3.893 7.4 4.261 14.187l17.459-.2s-8.847 2.049-14.186 2.117-12.426-1.824-12.426-1.824z" fill="#606060"/><path data-name="Path 1360" d="M350.922 155.86s-8.992 10.821-9.518 20.264l4.58.249a46.44 46.44 0 017.92-19.868s-1.059-.263-1.411-.336c-.471-.096-1.571-.309-1.571-.309z" fill="#42b2fc"/><path data-name="Path 1361" d="M328.505 155.711a48.411 48.411 0 00-7.132 20.616l-4.623-.082c.38-7.422 4.893-15.586 7.385-19.453 0-.001 3.19-.832 4.37-1.081z" fill="#42b2fc"/><path data-name="Path 1362" d="M358.118 213.951c-.226 11.08 1.11 33.144 1.11 33.144h6.328c2.988-15.524 4.043-25.512 4.043-30.968q0-1.608-.014-3c-.039-4.653-.162-7.354-.162-7.354 1.188-28.189-4.263-43.262-5.973-45.338s-9.537-3.941-9.537-3.941a114.109 114.109 0 00-3.643 14.052c-1.055 6.264 8.294 32.576 7.911 41.583a63.586 63.586 0 00-.063 1.822z" fill="#2a4e96"/><path data-name="Path 1363" d="M359.227 247.094s-1.335-22.064-1.11-33.144a21.614 21.614 0 0111.467-.8q.011 1.384.014 3c0 5.448-1.055 15.436-4.043 30.968 1.318 5.721 1.23 11.894-1.055 12.984s-9.841-3-9.753-4.812 4.48-8.196 4.48-8.196z" fill="#ffb27d"/><path data-name="Path 1364" d="M272.654 221.582c.617-2.337 1.075-3.632 2.632-4.766 2.264-1.649 4.95-1.206 6.951-.841a7.449 7.449 0 003.805-.519c3.544-2.441 12.443-7.474 16.876-9.731 3.023 1.81 6.738 5.4 8.486 12.391-6.812 3.107-21.747 3.052-24.589 2.375 0 0-2.632 1.975-4.635 2.158a6.76 6.76 0 01-2.606-.469 3.481 3.481 0 00-3.928 1.289 2.9 2.9 0 01-2.531 1.241c-.825.001-.849-1.656-.461-3.128z" fill="#ed985f"/><path data-name="Path 1365" d="M264.348 361.351h-47.137c-.806 0-2.612-.674-2.612-1.508s6.063-1.508 6.869-1.508h39.96V230.643a9.317 9.317 0 019.148-9.451h10.217a1.509 1.509 0 010 3.017h-10.217a6.334 6.334 0 00-6.228 6.435z" fill="#474747"/><path data-name="Path 1366" d="M223.472 361.351h-34.193a1.509 1.509 0 010-3.016h31.27V230.643a9.318 9.318 0 019.148-9.451h10.217a1.509 1.509 0 010 3.017h-10.217a6.334 6.334 0 00-6.229 6.435z" fill="#474747"/><path data-name="Path 1367" d="M261.947 243.446h-39a1.514 1.514 0 010-3.016h39a1.514 1.514 0 010 3.016z" fill="#474747"/><path data-name="Path 1368" d="M283.194 225.214h-12.617a2.515 2.515 0 010-5.027h12.617a2.515 2.515 0 010 5.027z" fill="#343434"/><path data-name="Path 1369" d="M270.577 221.192a9.266 9.266 0 00-9.053 8.078h2.966a6.294 6.294 0 016.087-5.061 1.509 1.509 0 000-3.016z" fill="#474747"/><path data-name="Path 1370" d="M242.319 225.214h-12.616a2.515 2.515 0 010-5.027h12.616a2.515 2.515 0 010 5.027z" fill="#343434"/><path data-name="Path 1371" d="M229.703 221.192a9.267 9.267 0 00-9.053 8.078h2.966a6.294 6.294 0 016.087-5.061 1.509 1.509 0 000-3.016z" fill="#474747"/><g data-name="Group 509"><g data-name="Group 510"><path data-name="Rectangle 2192" fill="#b9956f" d="M215.356 288.378h38.122v32.476h-38.122z"/><path data-name="Rectangle 2193" fill="#dabea0" d="M196.295 288.378h38.122v32.476h-38.122z"/><path data-name="Path 1296" d="M253.456 312.616h-6.039l.531-1.755-.531-1.252h6.039z" fill="#dabea0"/><path data-name="Path 1297" d="M234.418 298.429h-6.042l.534-1.756-.534-1.255h6.042z" fill="#c2a280"/><path data-name="Path 1298" d="M234.417 295.418h6.042l-.534 1.756.534 1.255h-6.042z" fill="#dabea0"/><path data-name="Path 1299" d="M196.295 312.968h6.039l-.531 1.756.531 1.255h-6.039z" fill="#c2a280"/><path data-name="Rectangle 2194" fill="#fff" d="M209.762 294.99h-10.971v-4.409h10.971z"/></g><g data-name="Group 511"><path data-name="Rectangle 2195" fill="#d8702a" d="M235.885 358.344H191.88v-37.49h44.005z"/><path data-name="Rectangle 2196" fill="#ff9e55" d="M257.893 358.344h-44.005v-37.49h44.005z"/><path data-name="Path 1300" d="M191.907 348.837h6.973l-.618-2.027.618-1.449h-6.973z" fill="#c15e1b"/><path data-name="Path 1301" d="M213.883 332.457h6.973l-.613-2.027.613-1.449h-6.973z" fill="#ffb27d"/><path data-name="Path 1302" d="M213.882 328.981h-6.973l.613 2.027-.613 1.449h6.973z" fill="#c15e1b"/><path data-name="Path 1303" d="M257.893 349.238h-6.974l.614 2.027-.614 1.449h6.974z" fill="#c2a280"/><path data-name="Rectangle 2197" fill="#fff" d="M242.345 323.398h12.666v5.089h-12.666z"/></g></g><path data-name="Path 1375" d="M267.623 334.741h-5.839c-6.933 0-12.555 7.113-12.555 15.886s5.621 15.886 12.555 15.886h5.839c6.933 0 12.554-7.112 12.554-15.886s-5.618-15.886-12.554-15.886z" fill="#343434"/><ellipse data-name="Ellipse 14" cx="12.554" cy="15.886" rx="12.554" ry="15.886" transform="translate(255.068 334.741)" fill="#474747"/><path data-name="Path 1376" d="M275.568 350.626c0 5.552-3.556 10.055-7.945 10.055s-7.946-4.5-7.946-10.055 3.556-10.054 7.946-10.054 7.945 4.5 7.945 10.054z" fill="#343434"/><path data-name="Path 1380" d="M286.817 220.492s-4.736 3.33-5.989 2.51.876-2.68-1.135-3.35 7.124.84 7.124.84z" fill="#d9935c"/><g data-name="Group 508"><path data-name="Rectangle 2192" fill="#d8702a" d="M117.79 310.726h65.432v55.74H117.79z"/><path data-name="Rectangle 2193" fill="#ff9e55" d="M85.074 310.726h65.432v55.74H85.074z"/><path data-name="Path 1296" d="M183.181 352.326h-10.365l.912-3.014-.912-2.15h10.365z" fill="#c15e1b"/><path data-name="Path 1297" d="M150.506 327.977h-10.37l.916-3.013-.916-2.154h10.37z" fill="#ffb27d"/><path data-name="Path 1298" d="M150.506 322.809h10.37l-.916 3.013.916 2.154h-10.37z" fill="#c15e1b"/><path data-name="Path 1299" d="M85.074 352.931H95.44l-.912 3.014.912 2.154H85.074z" fill="#ffb27d"/><path data-name="Rectangle 2194" fill="#fff" d="M108.188 322.075H89.357v-7.567h18.831z"/><path data-name="Rectangle 2195" fill="#b9956f" d="M156.986 311.304H117.79v-33.393h39.196z"/><path data-name="Rectangle 2196" fill="#dabea0" d="M176.588 311.304h-39.196v-33.393h39.196z"/><path data-name="Path 1300" d="M117.814 302.836h6.211l-.55-1.806.55-1.291h-6.211z" fill="#dabea0"/><path data-name="Path 1301" d="M137.388 288.246h6.211l-.546-1.805.546-1.291h-6.211z" fill="#c2a280"/><path data-name="Path 1302" d="M137.388 285.15h-6.211l.546 1.805-.546 1.291h6.211z" fill="#dabea0"/><path data-name="Path 1303" d="M176.587 303.193h-6.211l.546 1.805-.546 1.291h6.211z" fill="#c2a280"/><path data-name="Rectangle 2197" fill="#fff" d="M162.74 280.177h11.282v4.533H162.74z"/></g></g><g data-name="Group 109507"><path data-name="Path 77" d="M931.007 436.306h12.957l-1.14 3.769 1.14 2.691h-12.957z" fill="#e3f0ff"/><path data-name="Rectangle 178" fill="#fff" d="M936.366 388.272h23.538v9.458h-23.538z"/><path data-name="Rectangle 193" fill="#d8702a" d="M931.942 353.466h50.393v42.928h-50.393z"/><path data-name="Rectangle 194" fill="#ff9e55" d="M957.133 353.466h50.393v42.928h-50.393z"/><path data-name="Path 108" d="M931.971 385.509h7.986l-.707-2.321.707-1.661h-7.986z" fill="#c15e1b"/><path data-name="Path 109" d="M957.138 366.752h7.981l-.7-2.32.7-1.661h-7.981z" fill="#ffb27d"/><path data-name="Path 110" d="M957.142 362.771h-7.987l.7 2.321-.7 1.66h7.987z" fill="#c15e1b"/><path data-name="Path 111" d="M1007.535 385.969h-7.987l.7 2.321-.7 1.661h7.987z" fill="#ffb27d"/><path data-name="Rectangle 195" fill="#fff" d="M989.723 356.375h14.502v5.83h-14.502z"/><path data-name="Path 112" d="M983.755 394.568c1.226-.819 3.991-2.621 4.122-2.19a1.929 1.929 0 01-.417 1.354c1.654-.589 3.329-.913 7.223 0a2.964 2.964 0 011.881 1.39 1.378 1.378 0 01.235 1.173 1.33 1.33 0 01-.765.9c-2.052 1.178-1.443.46-4.293 2.22s-6.271 2.1-8.26.707l-2.713-.589-.166-4.653s1.562-.111 3.153-.312z" fill="#ffb27d"/><path data-name="Path 113" d="M913.125 346.657s7.736 6.531 15.209 1.726a26.394 26.394 0 00.393-7.874c-.069-.388-.131-.772-.194-1.137-.6-3.6-.855-5.648-.855-5.648-.394-.088-13.271-2.844-13.186-2.426 1.962 9.694-1.367 15.359-1.367 15.359z" fill="#ffb27d"/><path data-name="Path 114" d="M916.096 333.388a18.77 18.77 0 0012.433 5.984c-.6-3.6-.855-5.648-.855-5.648-.355-.029-12.036-.919-11.578-.336z" fill="#ed975d"/><path data-name="Path 115" d="M930.112 332.865s-12.855 5.89-16.27-2.456-7.376-13.174.685-17.279 10.973-1.626 12.769.866 6.071 17.126 2.816 18.869z" fill="#ffb27d"/><path data-name="Path 116" d="M914.734 332.688c-.165.152-2.89 1.637-10.415-8.581a10.293 10.293 0 01-1.072-9.093c1.391-3.775 8.015-7.815 13.716-10.118s7.736.86 9.754 4.04c2.12 3.339 6.88 5.506 6.88 5.506-4.56 3.928-11.464.913-13.459 2.014s-2.126 4.712-2.087 5.848-.034 2.114-2.884 1.637-.5 4.123.1 5.006c-.022-.001.811 2.427-.533 3.741z" fill="#343434"/><path data-name="Path 117" d="M895.054 554.499h-8.312c-1.71 0-3.666-1.767-4.15-5.088s-4.053-5.083-4.828-7.774 3.186-6.478 3.186-6.478l.661-.878.69-.918 6.567 1.6s.16 1.613.262 3.669a48.067 48.067 0 010 4.711c-.188 3.593.975 7.462 4.065 8.157s1.859 2.999 1.859 2.999z" fill="#2c3a64"/><path data-name="Path 118" d="M952.738 554.502h-21.964a1.747 1.747 0 01-.467-.141c-1.465-.76-1-6.555-.832-8.351.034-.33.063-.525.063-.525s7.719-6.378 8.785-1.5c.034.153.074.3.115.448 1.339 4.57 7.33 6.649 10.791 7.227 2.642.455 3.332 2.042 3.509 2.842z" fill="#2c3a64"/><path data-name="Path 119" d="M948.308 423.673s-1.174 15.115-2.548 33.282c-1.876 24.685-4.128 55.005-4.349 60.746-.388 9.976-1.932 25.91-1.932 25.91s-3.666 3.792-11.008 2.19a268.37 268.37 0 01-8.4-46.866c-.033-.4-.062-.8-.091-1.178-1.71-24.532-4.086-79.372-4.086-79.372z" fill="#42b2fc"/><path data-name="Path 120" d="M943.941 422.648s.758 9.423-3.465 27.133c-3.1 12.956-20.409 49.164-20.409 49.164-.034-.394-.062-.795-.091-1.178-1.71-24.535-4.435-76.2-4.435-76.2z" fill="#2c9edd"/><path data-name="Path 121" d="M943.942 422.645s-22.13 57.551-36.027 83.281-18.242 32.91-18.242 32.91-7.981-3.292-8.688-5.536c0 0 5.318-49.671 14.628-61.78 5.256-6.844 11.436-27.374 11.726-34.553s1.881-21.4 1.881-21.4z" fill="#42b2fc"/><path data-name="Path 122" d="M945.053 421.562c-3.1.194-35.766-1.084-35.772-2.945 0-6.555-1.357-17.167-3.015-30.036q-.457-3.6-.713-7.138a112.1 112.1 0 01-.04-17.379c.826-9.912 4.9-17.91 9.058-21.638.57-.471 2.56 1.107 5.934 2.521 3.124 1.308 5.592.371 8.4-.436l3.586 3.257a35.01 35.01 0 017.735 11.19c-.002-.038 5.1 62.582 4.827 62.604z" fill="#2a4e96"/><path data-name="Path 123" d="M940.225 358.919l-8.922 2.144-12.279 34.353a12.184 12.184 0 01-11.4 8.21l1.077 16.961 39.614 3.069z" fill="#42b2fc"/><path data-name="Path 124" d="M983.008 397.172c.284-2.686-1.05-3.187-1.05-3.187s-26.3-6.013-28.5-6.837-20.7-22.279-20.7-22.279-7.052-8.893-13.168-7.238c-5.313 1.443-7.525 5.589-8.374 9.594a12.071 12.071 0 004.885 12.4c8.819 6.09 26.49 18.092 30.7 19.552 9.377 3.251 34.962 1.632 34.962 1.632a8.657 8.657 0 001.248-3.639z" fill="#2a4e96"/><path data-name="Path 125" d="M922.057 351.11c-2.081-1.99-8.739-7.467-8.739-7.467l1.254-1.261c.889-.194 7.77 5.159 10.067 7.267 2.76 2.539 10.421 10.837 10.421 10.837l-3.756.589s-6.802-7.614-9.247-9.965z" fill="#42b2fc"/></g></g><g data-name="Group 109511" transform="translate(-168 -33)"><circle data-name="Ellipse 15" cx="11.5" cy="11.5" r="11.5" transform="translate(1133 336)" fill="#5ace75"/><path data-name="Path 1487" d="M1139.259 348.025l3.459 3.447 7.023-7.478" fill="none" stroke="#f3f9ff" stroke-linecap="round" stroke-linejoin="round" stroke-width="3"/></g></g></svg>